# xmcd CD database file generated by OrangeCD 5.2
#
# Track frame offsets:
#	150
#	18913
#	41483
#	66071
#	97606
#	112673
#	126571
#	151874
#	173895
#	190038
#	205675
#	223678
#	237912
#	255224
#	277169
#	296201
#	315609
#	330891
#
# Disc length: 4662 seconds
#
# Revision: 4
# Processed by: cddbd v1.5.2PL0 Copyright (c) Steve Scherf et al.
# Submitted via: OrangeCD 5.2
#
DISCID=f0123412
DTITLE=Various Artist - '70s Soul Gold   Disc Two
DYEAR=2006
DGENRE=70's Oldies
TTITLE0=Billy Preston - Outa-Space 
TTITLE1=Brothers Johnson - Strawberry Letter #23
TTITLE2=Curtis Mayfield - Freddie's Dead (Theme From Superfly)
TTITLE3=The Temptations - Papa Was A Rollin' Stone
TTITLE4=Brighter Side Of Darkness - Love Jones
TTITLE5=Four Tops - Ain't No Woman (Like The One I've Got)
TTITLE6=The Isley Brothers - That Lady   Part 1 and 2
TTITLE7=Marvin Gaye - Let's Get It On
TTITLE8=Eddie Kendricks - Keep On Truckin'
TTITLE9=Aretha Franklin - Until You Come Back To Me (That's What I'm Gonna Do) 
TTITLE10=Dionne Warwick and The Spinners - Then Came You
TTITLE11=Harold Melvin and The Blue Notes - Bad Luck
TTITLE12=Diana Ross - Love Hangover
TTITLE13=The Commodores - Easy
TTITLE14=The Floaters - Float On
TTITLE15=Chic - Le Freak
TTITLE16=Bell and James - Livin' It Up (Friday Night)
TTITLE17=Ray, Goodman and Brown - Special Lady
EXTD=
EXTT0=
EXTT1=
EXTT2=
EXTT3=
EXTT4=
EXTT5=
EXTT6=
EXTT7=
EXTT8=
EXTT9=
EXTT10=
EXTT11=
EXTT12=
EXTT13=
EXTT14=
EXTT15=
EXTT16=
EXTT17=
PLAYORDER=
